# xmcd CD database file
#
# Track frame offsets:
#	183
#	28655
#	52140
#	77440
#	98928
#	125128
#	138925
#	152393
#	175503
#
# Disc length: 2522 seconds
#
# Revision: 0
# Processed by: cddbd v1.5.2PL0 Copyright (c) Steve Scherf et al.
# Submitted via: CDex 1.50
#
DISCID=6b09d809
DTITLE=Roger Kellaway - A Jazz Portrait of Roger Kellaway
DYEAR=1963
DGENRE=Jazz
TTITLE0=Double fault
TTITLE1=Step right up
TTITLE2=Here today, gone tomorrow
TTITLE3=Black wall tunnel blues
TTITLE4=Crazy she calls me
TTITLE5=Broken windmill
TTITLE6=Same old, same old
TTITLE7=And elsewhere
TTITLE8=Cinderella
EXTD=YEAR: 1963
EXTT0=
EXTT1=
EXTT2=
EXTT3=
EXTT4=
EXTT5=
EXTT6=
EXTT7=
EXTT8=
PLAYORDER=
